# xmcd
#
# Track frame offsets:
#	150
#	15225
#	31536
#	45457
#	59444
#	76366
#	90363
#	104664
#	121723
#	138024
#	149915
#	164896
#	177343
#	192182
#	210620
#	224188
#	240879
#	257607
#
# Disc length: 3655 seconds
#
# Revision: 2
# Processed by: cddbd v1.5.2PL0 Copyright (c) Steve Scherf et al.
# Submitted via: audiograbber 1.83.01
#
DISCID=f60e4512
DTITLE=Various Artist - Promo Only Country Radio 2012 - 01
DYEAR=2012
DGENRE=Country
TTITLE0=Trace Adkins - Million Dollar View
TTITLE1=Keith Urban - You Gonna Fly
TTITLE2=David Bradley - If You Can't Make Money
TTITLE3=Lauren Alaina - Georgia Peaches
TTITLE4=Uncle Kracker - My Hometown
TTITLE5=Love And Theft - Angel Eyes
TTITLE6=Rodney Atkins - He's Mine
TTITLE7=George Strait - Love's Gonna Make it Alright
TTITLE8=Gloriana - (Kissed You) Good Night
TTITLE9=Billy Currington - Like My Dog (PO Clean Edit with Bark)
TTITLE10=Craig Campbell - When I Get it (PO Clean Edit)
TTITLE11=Andy Gibson - Wanna Make You Love Me
TTITLE12=Levi Hart - We All Make Mistakes
TTITLE13=Sugarland - Run
TTITLE14=Mark Cooke - Any Way the Wind Blows
TTITLE15=Toby Keith - Red Solo Cup (Album Version)
TTITLE16=Toby Keith - Red Solo Cup (Vegetables-Explicit)
TTITLE17=Toby Keith - Red Solo Cup (Bleeped-Explicit)
EXTD=
EXTT0=
EXTT1=
EXTT2=
EXTT3=
EXTT4=
EXTT5=
EXTT6=
EXTT7=
EXTT8=
EXTT9=
EXTT10=
EXTT11=
EXTT12=
EXTT13=
EXTT14=
EXTT15=
EXTT16=
EXTT17=
PLAYORDER=
